<svg id="Layer_1" data-name="Layer 1" xmlns="http://www.w3.org/2000/svg" viewBox="0 0 90 90"><defs><style>.cls-1{fill:none;}</style></defs><title>noun_364854_cc</title><path class="cls-1" d="M73.8,36.7a2.1,2.1,0,0,0,0,4.2,2.11,2.11,0,0,0,2.1-2.1A2.05,2.05,0,0,0,73.8,36.7Z" transform="translate(-5 -5)"/><path class="cls-1" d="M50.2,40A13.3,13.3,0,1,0,63.5,53.3,13.36,13.36,0,0,0,50.2,40Zm0,22.9a9.6,9.6,0,1,1,9.6-9.6A9.6,9.6,0,0,1,50.2,62.9Z" transform="translate(-5 -5)"/><path class="cls-1" d="M50,9A41,41,0,1,0,91,50,41.06,41.06,0,0,0,50,9ZM78.8,69.2a3.33,3.33,0,0,1-3.3,3.3H24.4a3.33,3.33,0,0,1-3.3-3.3V37.3A3.33,3.33,0,0,1,24.4,34h7.7l3.8-6.4H64.2L68,34h7.7A3.33,3.33,0,0,1,79,37.3V69.2Z" transform="translate(-5 -5)"/><path d="M50,5A45,45,0,1,0,95,50,44.94,44.94,0,0,0,50,5Zm0,86A41,41,0,1,1,91,50,41.06,41.06,0,0,1,50,91Z" transform="translate(-5 -5)"/><path d="M75.6,33.9H67.9l-3.8-6.4H35.8L32,33.9H24.3A3.33,3.33,0,0,0,21,37.2V69.1a3.33,3.33,0,0,0,3.3,3.3H75.4a3.33,3.33,0,0,0,3.3-3.3V37.3A3.08,3.08,0,0,0,75.6,33.9ZM50.2,66.7A13.35,13.35,0,1,1,63.5,53.3,13.36,13.36,0,0,1,50.2,66.7ZM73.8,40.8a2.1,2.1,0,1,1,2.1-2.1A2.11,2.11,0,0,1,73.8,40.8Z" transform="translate(-5 -5)"/><circle cx="45.2" cy="48.3" r="9.6"/></svg>